<?xml version="1.0" standalone="no"?>
<!DOCTYPE svg PUBLIC "-//W3C//DTD SVG 20010904//EN"
 "http://www.w3.org/TR/2001/REC-SVG-20010904/DTD/svg10.dtd">
<svg version="1.0" xmlns="http://www.w3.org/2000/svg"
 width="1600.000000pt" height="1600.000000pt" viewBox="0 0 1600.000000 1600.000000"
 preserveAspectRatio="xMidYMid meet">
<metadata>
Created by potrace 1.11, written by Peter Selinger 2001-2013
</metadata>
<g transform="translate(0.000000,1600.000000) scale(0.100000,-0.100000)"
fill="#000000" stroke="none">
<path d="M7420 15984 c-25 -9 -59 -27 -77 -40 -18 -14 -609 -601 -1314 -1306
-1434 -1434 -1334 -1324 -1334 -1473 0 -141 -48 -86 924 -1063 l868 -873 49
46 c73 69 377 369 392 388 12 13 -82 111 -729 757 l-742 742 81 81 c45 45 509
512 1031 1037 l950 955 744 -744 744 -743 222 221 c196 195 221 224 209 238
-17 22 -475 483 -1161 1171 -425 427 -574 570 -612 590 -64 33 -178 40 -245
16z"/>
<path d="M10742 14490 c-202 -42 -383 -133 -537 -272 -33 -29 -926 -921 -1985
-1981 -1582 -1584 -1930 -1937 -1955 -1984 -26 -48 -30 -69 -32 -137 -2 -128
15 -154 244 -385 106 -107 193 -198 193 -202 0 -4 -17 -5 -37 -1 -53 9 -433 9
-517 -1 -315 -35 -612 -160 -797 -334 -86 -82 -122 -156 -121 -254 1 -133 -4
-127 518 -649 l465 -466 -24 -44 c-40 -77 -81 -201 -103 -315 -15 -83 -20
-243 -8 -335 12 -104 55 -245 104 -346 259 -533 883 -761 1440 -527 47 20 90
40 95 44 7 5 185 -167 460 -442 248 -248 468 -463 490 -479 130 -90 302 -68
422 55 174 181 309 490 338 780 3 33 8 71 11 84 7 34 6 323 -2 411 -7 84 -7
83 -5 91 0 3 91 -84 200 -193 162 -161 209 -203 255 -223 93 -41 193 -38 287
10 50 26 3986 3966 4035 4040 147 218 210 426 207 680 -3 246 -80 469 -232
670 -25 33 -588 602 -1251 1265 -1290 1291 -1267 1269 -1452 1355 -72 33 -205
76 -278 90 -19 3 -102 8 -185 10 -121 4 -168 1 -243 -15z m323 -615 c73 -14
178 -69 240 -127 102 -95 2344 -2342 2360 -2365 32 -46 73 -140 81 -183 26
-146 0 -274 -77 -386 -16 -23 -852 -865 -1859 -1872 l-1830 -1830 -636 637
c-350 350 -669 672 -708 715 -97 108 -174 186 -283 285 -103 92 -1363 1350
-1363 1360 0 6 3177 3181 3390 3388 58 56 146 144 195 196 157 164 301 218
490 182z m-4345 -5004 c140 -26 155 -30 185 -41 14 -5 25 -8 25 -5 0 8 224
-73 316 -113 277 -123 523 -292 758 -521 89 -86 195 -203 251 -275 17 -22 39
-51 51 -65 46 -57 158 -236 209 -334 133 -255 215 -518 246 -789 13 -117 7
-380 -11 -458 -6 -25 -13 -56 -16 -69 -4 -21 -31 2 -251 220 -783 777 -1592
1589 -1618 1624 -36 50 -42 55 -85 85 -19 14 -82 72 -139 130 -56 58 -211 213
-342 346 -131 132 -239 243 -239 246 0 8 77 26 155 37 101 14 387 4 505 -18z
m212 -1808 c142 -142 258 -261 258 -266 0 -10 -94 -2 -150 13 -177 48 -342
228 -365 400 -12 84 -13 110 -6 110 3 0 122 -116 263 -257z"/>
<path d="M13842 9357 l-222 -222 744 -744 745 -745 -507 -503 c-279 -277 -743
-740 -1033 -1028 -289 -289 -528 -525 -532 -525 -4 0 -341 334 -749 741 l-741
742 -223 -229 -223 -229 617 -613 c1258 -1250 1140 -1137 1207 -1161 76 -29
153 -29 231 0 57 21 101 63 1356 1317 1296 1295 1339 1340 1355 1420 17 87 2
176 -41 242 -13 19 -95 107 -184 195 -713 711 -1551 1542 -1563 1552 -13 10
-51 -23 -237 -210z"/>
</g>
</svg>
